<svg xmlns="http://www.w3.org/2000/svg" width="300" height="90" viewBox="0 0 300 90"><g font-family="BoonBaan" letter-spacing="0" word-spacing="0"><path d="M21.41 35.537q-.618-.663-1.547-.663-.928 0-1.591.663-.62.62-.62 1.547 0 .929.62 1.592.663.619 1.591.619.929 0 1.547-.619.664-.663.664-1.592 0-.928-.664-1.547zm9.285 21.31q-1.901 3.006-5.527 3.006-3.536 0-5.526-1.946-1.99-1.945-1.99-5.128v-6.631q0-.487.089-.929.088-.442.265-.84.221-.398.354-.663.177-.265.53-.663l.531-.53q.177-.133.619-.531.486-.442.575-.53-.266.043-.752.043-2.034 0-3.448-1.193Q15 39.074 15 37.084q0-1.989 1.415-3.315 1.414-1.327 3.448-1.327 2.3 0 3.802 1.415 1.503 1.415 1.503 3.449 0 1.812-.884 3.271-.884 1.459-1.768 2.785-.884 1.327-.884 2.786v6.631q0 1.769.928 2.785.973.973 2.608.973 1.636 0 2.565-.973.972-1.016.972-2.785v-6.631h3.98v6.631q0 1.769.928 2.785.972.973 2.608.973 1.636 0 2.564-.973.973-1.016.973-2.785V22.274h3.979V52.78q0 3.183-1.99 5.128-1.99 1.946-5.526 1.946-3.625 0-5.526-3.007zm27.403-5.837q-.619-.662-1.547-.662-.929 0-1.592.663-.619.619-.619 1.547 0 .928.62 1.592.662.619 1.59.619.93 0 1.548-.62.663-.663.663-1.59 0-.93-.663-1.548zm-4.996-1.768q1.415-1.326 3.449-1.326 2.033 0 3.448 1.326 1.415 1.327 1.415 3.316 0 1.459-.84 2.564-.796 1.061-2.122 1.548 2.387.53 4.73.53 3.36 0 5.438-1.459t2.078-3.846v-7.958q0-.707.133-1.326-3.802 1.547-7.649 1.547-4.598 0-8.046-1.37-3.448-1.415-3.448-3.493 0-2.83 3.448-5.04Q58.584 32 63.182 32q4.82 0 8.135 2.432 3.36 2.387 3.36 6.41v11.053q0 3.935-3.404 6.19-3.405 2.21-8.09 2.21-4.599 0-8.047-2.166-3.448-2.167-3.448-5.57 0-1.99 1.414-3.317zm17.861-9.638q-.575-1.945-2.74-3.227-2.123-1.282-5.04-1.282-3.272 0-5.394 1.415-2.123 1.37-2.123 2.564 0 .84 2.211 1.636 2.21.796 5.305.796 4.377 0 7.781-1.902zm10.304 19.143l1.105-2.431q1.327.663 2.21.663 1.548 0 1.548-2.874V41.638q-.53.089-.884.089-2.034 0-3.449-1.327-1.414-1.326-1.414-3.316 0-1.989 1.414-3.315 1.415-1.327 3.449-1.327t3.448 1.327q1.415 1.326 1.415 3.315v15.96q2.653 3.493 6.19 3.493 2.652 0 3.757-1.194 1.106-1.193 1.106-3.448v-19.01h3.978v19.01q0 3.758-1.989 5.88-1.99 2.078-5.526 2.078-4.598 0-7.737-3.626-.442 1.592-1.636 2.609-1.15 1.017-3.006 1.017-1.769 0-3.979-1.106zm5.526-23.21q-.619-.663-1.547-.663-.929 0-1.592.663-.619.62-.619 1.547 0 .929.62 1.592.662.619 1.59.619.93 0 1.548-.619.663-.663.663-1.592 0-.928-.663-1.547zm34.885 18.126q-.62-.663-1.548-.663t-1.591.663q-.619.62-.619 1.548t.619 1.591q.663.62 1.591.62.929 0 1.548-.62.663-.663.663-1.591 0-.929-.663-1.548zm-1.548-3.094q2.034 0 3.449 1.326t1.415 3.316q0 1.99-1.415 3.315-1.415 1.327-3.449 1.327-3.183 0-5.128-2.122-1.945-2.122-1.945-5.394V40.842q0-2.033.796-3.802.795-1.768 1.9-2.785 1.15-1.061 2.123-1.636 1.017-.619 1.591-.619l5.085 4.2 5.084-4.2q.574 0 1.547.62 1.017.574 2.122 1.635 1.15 1.017 1.945 2.785.796 1.769.796 3.802v18.569h-3.979V40.842q0-3.536-2.431-5.305l-5.084 3.98-5.085-3.98q-2.431 1.769-2.431 5.305v10.92q1.282-1.193 3.094-1.193zm5.694-27.101q-.53-.53-1.238-.53-.707 0-1.238.53-.53.486-.53 1.238 0 .751.53 1.282.53.486 1.238.486.707 0 1.238-.486.53-.53.53-1.282t-.53-1.238zm-5.217 1.238q0-1.99 1.46-3.184 1.458-1.237 3.845-1.237h2.653q2.034 0 2.785-1.017.752-1.017.752-3.183h3.537q0 3.625-1.813 5.35-1.813 1.723-4.819 1.723h-.973q.531.663.531 1.548 0 1.635-1.15 2.696-1.149 1.061-2.829 1.061-1.68 0-2.83-1.06-1.149-1.062-1.149-2.697z" style="line-height:125%;-inkscape-font-specification:BoonBaan;text-align:start" fill-opacity=".9" font-weight="400" fill="#1a1a1a"/><path d="M145.32 39.118q.664.62 1.592.62.929 0 1.548-.62.663-.663.663-1.591 0-.929-.663-1.548-.62-.663-1.548-.663t-1.591.663q-.62.62-.62 1.548t.62 1.591zm1.592 3.272q-2.343 0-3.935-1.282-1.591-1.327-1.591-3.581 0-2.255 1.591-3.67 1.636-1.415 3.935-1.415 2.653 0 4.51 1.68 1.9 1.636 1.9 4.068 0 2.166-1.326 4.686t-1.326 4.598v3.537q0 4.42 5.747 4.42 5.748 0 5.748-4.42V32.885h6.631V51.01q0 9.284-12.379 9.284-6.366 0-9.372-2.564-3.006-2.565-3.006-6.72v-3.537q0-1.15.53-2.166.53-1.017 1.017-1.548.53-.53 1.547-1.37h-.22zM155.54 74v-2.653q0-.928.752-1.812-1.46-.177-2.432-1.238-.973-1.017-.973-2.476 0-1.636 1.15-2.697 1.15-1.06 2.83-1.06 1.856 0 3.138 1.06 1.282 1.061 1.282 2.697 0 1.105-.442 2.785-.442 1.68-.442 2.741V74h-4.863zm2.432-9.284q-.487-.442-1.106-.442-.619 0-1.06.442-.487.486-.487 1.105 0 .62.486 1.061.442.486 1.061.486.62 0 1.106-.486.442-.442.442-1.06 0-.62-.442-1.106zm19.187-25.598q.663.62 1.591.62.929 0 1.548-.62.663-.663.663-1.591 0-.929-.663-1.548-.62-.663-1.548-.663t-1.591.663q-.62.62-.62 1.548t.62 1.591zm7.118-1.591v14.898q2.254 2.565 4.863 2.565 3.537 0 3.537-4.421V32.885h6.631v17.684q0 4.642-1.99 6.985-1.945 2.299-5.526 2.299-4.642 0-7.825-3.625-1.15 3.625-5.659 3.625-2.873 0-5.084-1.106l1.105-3.094q.929.398 1.857.398 1.46 0 1.46-1.946v-10.61q0-.707.22-1.15-2.033-.22-3.36-1.503-1.282-1.282-1.282-3.315 0-2.255 1.592-3.67 1.636-1.415 3.934-1.415 2.3 0 3.89 1.415 1.637 1.415 1.637 3.67zm22.903 1.591q.664.62 1.592.62t1.547-.62q.663-.663.663-1.591 0-.929-.663-1.548-.619-.663-1.547-.663-.928 0-1.592.663-.619.62-.619 1.548t.62 1.591zm1.592 3.272q-2.343 0-3.935-1.282-1.591-1.327-1.591-3.581 0-2.255 1.591-3.67 1.636-1.415 3.935-1.415 2.653 0 4.51 1.68 1.9 1.636 1.9 4.068 0 2.166-1.326 4.686t-1.326 4.598v3.537q0 4.42 5.747 4.42t5.747-4.42V32.885h6.632V51.01q0 9.284-12.379 9.284-6.366 0-9.372-2.564-3.007-2.565-3.007-6.72v-3.537q0-1.15.53-2.166.531-1.017 1.018-1.548.53-.53 1.547-1.37h-.221zm6.948-22.15q-.398-.397-.973-.397t-.928.397q-.398.354-.398.929 0 .575.398.972.353.354.928.354.575 0 .973-.354.354-.397.354-.972t-.354-.929zm-4.952 7.34v-2.432h1.769q1.238 0 2.122-.884-1.46-.045-2.432-.885-1.017-.884-1.017-2.21 0-1.37 1.061-2.343 1.017-.973 2.476-.973 1.46 0 2.52.973 1.017.972 1.017 2.343 0 1.99-1.37 3.537h3.138q1.813 0 2.786-1.282.972-1.327.972-3.803h4.642q0 3.714-1.945 5.836-1.99 2.122-5.128 2.122h-10.61zm30.947 12.82q-.619-.663-1.547-.663-.928 0-1.591.663-.62.62-.62 1.548t.62 1.591q.663.62 1.591.62.929 0 1.547-.62.664-.663.664-1.591 0-.929-.664-1.548zm5.748 19.01V41.285q0-4.863-4.642-4.863-1.548 0-2.741.885 2.343.088 3.979 1.326 1.635 1.194 1.635 3.316 0 2.254-1.635 3.67-1.592 1.414-3.89 1.414-2.3 0-3.936-1.415-1.591-1.415-1.591-3.67 0-4.067 2.697-6.764 2.74-2.74 7.03-2.74 4.022 0 6.852 2.52 2.873 2.52 2.873 6.764V59.41h-6.631zm15.387-20.292q.664.62 1.592.62.929 0 1.548-.62.663-.663.663-1.591 0-.929-.663-1.548-.62-.663-1.548-.663t-1.591.663q-.62.62-.62 1.548t.62 1.591zm7.119-1.591v14.898q2.254 2.565 4.863 2.565 3.536 0 3.536-4.421V32.885H285v17.684q0 4.642-1.99 6.985-1.945 2.299-5.526 2.299-4.642 0-7.825-3.625-1.15 3.625-5.659 3.625-2.874 0-5.084-1.106l1.105-3.094q.929.398 1.857.398 1.459 0 1.459-1.946v-10.61q0-.707.221-1.15-2.034-.22-3.36-1.503-1.282-1.282-1.282-3.315 0-2.255 1.592-3.67 1.635-1.415 3.934-1.415 2.3 0 3.89 1.415 1.637 1.415 1.637 3.67z" style="line-height:125%;-inkscape-font-specification:'BoonBaan, Bold';text-align:start" fill="#8b0" fill-opacity=".898" font-weight="700"/></g></svg>