<?xml version="1.0" encoding="UTF-8" standalone="no"?>
<svg
   xmlns:dc="http://purl.org/dc/elements/1.1/"
   xmlns:cc="http://creativecommons.org/ns#"
   xmlns:rdf="http://www.w3.org/1999/02/22-rdf-syntax-ns#"
   xmlns:svg="http://www.w3.org/2000/svg"
   xmlns="http://www.w3.org/2000/svg"
   xmlns:sodipodi="http://sodipodi.sourceforge.net/DTD/sodipodi-0.dtd"
   xmlns:inkscape="http://www.inkscape.org/namespaces/inkscape"
   width="1200"
   height="630"
   viewBox="0 0 1200 630"
   id="svg2"
   version="1.1"
   inkscape:version="0.91 r13725"
   sodipodi:docname="boonbaan-cover.svg"
   inkscape:export-filename="/home/i/repos/fontuni/fontuni.github.io/_fonts/boonbaan/images/boonbaan-cover.png"
   inkscape:export-xdpi="90"
   inkscape:export-ydpi="90">
  <metadata
     id="metadata14">
    <rdf:RDF>
      <cc:Work
         rdf:about="">
        <dc:format>image/svg+xml</dc:format>
        <dc:type
           rdf:resource="http://purl.org/dc/dcmitype/StillImage" />
        <dc:title></dc:title>
      </cc:Work>
    </rdf:RDF>
  </metadata>
  <defs
     id="defs12" />
  <sodipodi:namedview
     pagecolor="#ffffff"
     bordercolor="#666666"
     borderopacity="1"
     objecttolerance="10"
     gridtolerance="10"
     guidetolerance="10"
     inkscape:pageopacity="0"
     inkscape:pageshadow="2"
     inkscape:window-width="1366"
     inkscape:window-height="718"
     id="namedview10"
     showgrid="false"
     inkscape:zoom="0.55"
     inkscape:cx="505.48732"
     inkscape:cy="344.02499"
     inkscape:window-x="0"
     inkscape:window-y="24"
     inkscape:window-maximized="1"
     inkscape:current-layer="layer2"
     inkscape:showpageshadow="false"
     showborder="false" />
  <g
     inkscape:groupmode="layer"
     id="layer1"
     inkscape:label="back"
     sodipodi:insensitive="true">
    <path
       style="fill:#88bb00;fill-opacity:1;stroke:none"
       d="m 0,-5e-5 1200,0 L 1200,630 0,630 Z"
       id="rect3384"
       inkscape:connector-curvature="0" />
  </g>
  <g
     inkscape:groupmode="layer"
     id="layer2"
     inkscape:label="fore">
    <g
       id="g4248"
       style="fill:#ffffff;fill-opacity:0.94999999">
      <g
         transform="matrix(3.3333333,0,0,3.3333333,100,73.333336)"
         style="font-family:BoonBaan;letter-spacing:0;word-spacing:0;fill:#ffffff;fill-opacity:0.94999999"
         id="g4"
         word-spacing="0"
         letter-spacing="0">
        <path
           inkscape:connector-curvature="0"
           id="path6"
           font-weight="400"
           style="font-weight:400;line-height:125%;-inkscape-font-specification:BoonBaan;text-align:start;fill:#ffffff;fill-opacity:0.94999999"
           d="m 21.41,35.537 q -0.618,-0.663 -1.547,-0.663 -0.928,0 -1.591,0.663 -0.62,0.62 -0.62,1.547 0,0.929 0.62,1.592 0.663,0.619 1.591,0.619 0.929,0 1.547,-0.619 0.664,-0.663 0.664,-1.592 0,-0.928 -0.664,-1.547 z m 9.285,21.31 q -1.901,3.006 -5.527,3.006 -3.536,0 -5.526,-1.946 -1.99,-1.945 -1.99,-5.128 l 0,-6.631 q 0,-0.487 0.089,-0.929 0.088,-0.442 0.265,-0.84 0.221,-0.398 0.354,-0.663 0.177,-0.265 0.53,-0.663 l 0.531,-0.53 q 0.177,-0.133 0.619,-0.531 0.486,-0.442 0.575,-0.53 -0.266,0.043 -0.752,0.043 -2.034,0 -3.448,-1.193 Q 15,39.074 15,37.084 q 0,-1.989 1.415,-3.315 1.414,-1.327 3.448,-1.327 2.3,0 3.802,1.415 1.503,1.415 1.503,3.449 0,1.812 -0.884,3.271 -0.884,1.459 -1.768,2.785 -0.884,1.327 -0.884,2.786 l 0,6.631 q 0,1.769 0.928,2.785 0.973,0.973 2.608,0.973 1.636,0 2.565,-0.973 0.972,-1.016 0.972,-2.785 l 0,-6.631 3.98,0 0,6.631 q 0,1.769 0.928,2.785 0.972,0.973 2.608,0.973 1.636,0 2.564,-0.973 0.973,-1.016 0.973,-2.785 l 0,-30.505 3.979,0 0,30.506 q 0,3.183 -1.99,5.128 -1.99,1.946 -5.526,1.946 -3.625,0 -5.526,-3.007 z M 58.098,51.01 q -0.619,-0.662 -1.547,-0.662 -0.929,0 -1.592,0.663 -0.619,0.619 -0.619,1.547 0,0.928 0.62,1.592 0.662,0.619 1.59,0.619 0.93,0 1.548,-0.62 0.663,-0.663 0.663,-1.59 0,-0.93 -0.663,-1.548 z m -4.996,-1.768 q 1.415,-1.326 3.449,-1.326 2.033,0 3.448,1.326 1.415,1.327 1.415,3.316 0,1.459 -0.84,2.564 -0.796,1.061 -2.122,1.548 2.387,0.53 4.73,0.53 3.36,0 5.438,-1.459 2.078,-1.459 2.078,-3.846 l 0,-7.958 q 0,-0.707 0.133,-1.326 -3.802,1.547 -7.649,1.547 -4.598,0 -8.046,-1.37 -3.448,-1.415 -3.448,-3.493 0,-2.83 3.448,-5.04 Q 58.584,32 63.182,32 q 4.82,0 8.135,2.432 3.36,2.387 3.36,6.41 l 0,11.053 q 0,3.935 -3.404,6.19 -3.405,2.21 -8.09,2.21 -4.599,0 -8.047,-2.166 -3.448,-2.167 -3.448,-5.57 0,-1.99 1.414,-3.317 z m 17.861,-9.638 q -0.575,-1.945 -2.74,-3.227 -2.123,-1.282 -5.04,-1.282 -3.272,0 -5.394,1.415 -2.123,1.37 -2.123,2.564 0,0.84 2.211,1.636 2.21,0.796 5.305,0.796 4.377,0 7.781,-1.902 z m 10.304,19.143 1.105,-2.431 q 1.327,0.663 2.21,0.663 1.548,0 1.548,-2.874 l 0,-12.467 q -0.53,0.089 -0.884,0.089 -2.034,0 -3.449,-1.327 -1.414,-1.326 -1.414,-3.316 0,-1.989 1.414,-3.315 1.415,-1.327 3.449,-1.327 2.034,0 3.448,1.327 1.415,1.326 1.415,3.315 l 0,15.96 q 2.653,3.493 6.19,3.493 2.652,0 3.757,-1.194 1.106,-1.193 1.106,-3.448 l 0,-19.01 3.978,0 0,19.01 q 0,3.758 -1.989,5.88 -1.99,2.078 -5.526,2.078 -4.598,0 -7.737,-3.626 -0.442,1.592 -1.636,2.609 -1.15,1.017 -3.006,1.017 -1.769,0 -3.979,-1.106 z m 5.526,-23.21 q -0.619,-0.663 -1.547,-0.663 -0.929,0 -1.592,0.663 -0.619,0.62 -0.619,1.547 0,0.929 0.62,1.592 0.662,0.619 1.59,0.619 0.93,0 1.548,-0.619 0.663,-0.663 0.663,-1.592 0,-0.928 -0.663,-1.547 z m 34.885,18.126 Q 121.058,53 120.13,53 q -0.928,0 -1.591,0.663 -0.619,0.62 -0.619,1.548 0,0.928 0.619,1.591 0.663,0.62 1.591,0.62 0.929,0 1.548,-0.62 0.663,-0.663 0.663,-1.591 0,-0.929 -0.663,-1.548 z m -1.548,-3.094 q 2.034,0 3.449,1.326 1.415,1.326 1.415,3.316 0,1.99 -1.415,3.315 -1.415,1.327 -3.449,1.327 -3.183,0 -5.128,-2.122 -1.945,-2.122 -1.945,-5.394 l 0,-11.495 q 0,-2.033 0.796,-3.802 0.795,-1.768 1.9,-2.785 1.15,-1.061 2.123,-1.636 Q 118.893,32 119.467,32 l 5.085,4.2 5.084,-4.2 q 0.574,0 1.547,0.62 1.017,0.574 2.122,1.635 1.15,1.017 1.945,2.785 0.796,1.769 0.796,3.802 l 0,18.569 -3.979,0 0,-18.569 q 0,-3.536 -2.431,-5.305 l -5.084,3.98 -5.085,-3.98 q -2.431,1.769 -2.431,5.305 l 0,10.92 q 1.282,-1.193 3.094,-1.193 z m 5.694,-27.101 q -0.53,-0.53 -1.238,-0.53 -0.707,0 -1.238,0.53 -0.53,0.486 -0.53,1.238 0,0.751 0.53,1.282 0.53,0.486 1.238,0.486 0.707,0 1.238,-0.486 0.53,-0.53 0.53,-1.282 0,-0.752 -0.53,-1.238 z m -5.217,1.238 q 0,-1.99 1.46,-3.184 1.458,-1.237 3.845,-1.237 l 2.653,0 q 2.034,0 2.785,-1.017 0.752,-1.017 0.752,-3.183 l 3.537,0 q 0,3.625 -1.813,5.35 -1.813,1.723 -4.819,1.723 l -0.973,0 q 0.531,0.663 0.531,1.548 0,1.635 -1.15,2.696 -1.149,1.061 -2.829,1.061 -1.68,0 -2.83,-1.06 -1.149,-1.062 -1.149,-2.697 z" />
        <path
           inkscape:connector-curvature="0"
           id="path8"
           font-weight="700"
           style="font-weight:700;line-height:125%;-inkscape-font-specification:'BoonBaan, Bold';text-align:start;fill:#ffffff;fill-opacity:0.94999999"
           d="m 145.32,39.118 q 0.664,0.62 1.592,0.62 0.929,0 1.548,-0.62 0.663,-0.663 0.663,-1.591 0,-0.929 -0.663,-1.548 -0.62,-0.663 -1.548,-0.663 -0.928,0 -1.591,0.663 -0.62,0.62 -0.62,1.548 0,0.928 0.62,1.591 z m 1.592,3.272 q -2.343,0 -3.935,-1.282 -1.591,-1.327 -1.591,-3.581 0,-2.255 1.591,-3.67 1.636,-1.415 3.935,-1.415 2.653,0 4.51,1.68 1.9,1.636 1.9,4.068 0,2.166 -1.326,4.686 -1.326,2.52 -1.326,4.598 l 0,3.537 q 0,4.42 5.747,4.42 5.748,0 5.748,-4.42 l 0,-18.126 6.631,0 0,18.125 q 0,9.284 -12.379,9.284 -6.366,0 -9.372,-2.564 -3.006,-2.565 -3.006,-6.72 l 0,-3.537 q 0,-1.15 0.53,-2.166 0.53,-1.017 1.017,-1.548 0.53,-0.53 1.547,-1.37 l -0.22,0 z m 8.628,31.61 0,-2.653 q 0,-0.928 0.752,-1.812 -1.46,-0.177 -2.432,-1.238 -0.973,-1.017 -0.973,-2.476 0,-1.636 1.15,-2.697 1.15,-1.06 2.83,-1.06 1.856,0 3.138,1.06 1.282,1.061 1.282,2.697 0,1.105 -0.442,2.785 -0.442,1.68 -0.442,2.741 l 0,2.653 -4.863,0 z m 2.432,-9.284 q -0.487,-0.442 -1.106,-0.442 -0.619,0 -1.06,0.442 -0.487,0.486 -0.487,1.105 0,0.62 0.486,1.061 0.442,0.486 1.061,0.486 0.62,0 1.106,-0.486 0.442,-0.442 0.442,-1.06 0,-0.62 -0.442,-1.106 z m 19.187,-25.598 q 0.663,0.62 1.591,0.62 0.929,0 1.548,-0.62 0.663,-0.663 0.663,-1.591 0,-0.929 -0.663,-1.548 -0.62,-0.663 -1.548,-0.663 -0.928,0 -1.591,0.663 -0.62,0.62 -0.62,1.548 0,0.928 0.62,1.591 z m 7.118,-1.591 0,14.898 q 2.254,2.565 4.863,2.565 3.537,0 3.537,-4.421 l 0,-17.684 6.631,0 0,17.684 q 0,4.642 -1.99,6.985 -1.945,2.299 -5.526,2.299 -4.642,0 -7.825,-3.625 -1.15,3.625 -5.659,3.625 -2.873,0 -5.084,-1.106 l 1.105,-3.094 q 0.929,0.398 1.857,0.398 1.46,0 1.46,-1.946 l 0,-10.61 q 0,-0.707 0.22,-1.15 -2.033,-0.22 -3.36,-1.503 -1.282,-1.282 -1.282,-3.315 0,-2.255 1.592,-3.67 1.636,-1.415 3.934,-1.415 2.3,0 3.89,1.415 1.637,1.415 1.637,3.67 z m 22.903,1.591 q 0.664,0.62 1.592,0.62 0.928,0 1.547,-0.62 0.663,-0.663 0.663,-1.591 0,-0.929 -0.663,-1.548 -0.619,-0.663 -1.547,-0.663 -0.928,0 -1.592,0.663 -0.619,0.62 -0.619,1.548 0,0.928 0.62,1.591 z m 1.592,3.272 q -2.343,0 -3.935,-1.282 -1.591,-1.327 -1.591,-3.581 0,-2.255 1.591,-3.67 1.636,-1.415 3.935,-1.415 2.653,0 4.51,1.68 1.9,1.636 1.9,4.068 0,2.166 -1.326,4.686 -1.326,2.52 -1.326,4.598 l 0,3.537 q 0,4.42 5.747,4.42 5.747,0 5.747,-4.42 l 0,-18.126 6.632,0 0,18.125 q 0,9.284 -12.379,9.284 -6.366,0 -9.372,-2.564 -3.007,-2.565 -3.007,-6.72 l 0,-3.537 q 0,-1.15 0.53,-2.166 0.531,-1.017 1.018,-1.548 0.53,-0.53 1.547,-1.37 l -0.221,0 z m 6.948,-22.15 q -0.398,-0.397 -0.973,-0.397 -0.575,0 -0.928,0.397 -0.398,0.354 -0.398,0.929 0,0.575 0.398,0.972 0.353,0.354 0.928,0.354 0.575,0 0.973,-0.354 0.354,-0.397 0.354,-0.972 0,-0.575 -0.354,-0.929 z m -4.952,7.34 0,-2.432 1.769,0 q 1.238,0 2.122,-0.884 -1.46,-0.045 -2.432,-0.885 -1.017,-0.884 -1.017,-2.21 0,-1.37 1.061,-2.343 1.017,-0.973 2.476,-0.973 1.46,0 2.52,0.973 1.017,0.972 1.017,2.343 0,1.99 -1.37,3.537 l 3.138,0 q 1.813,0 2.786,-1.282 0.972,-1.327 0.972,-3.803 l 4.642,0 q 0,3.714 -1.945,5.836 -1.99,2.122 -5.128,2.122 l -10.61,0 z m 30.947,12.82 q -0.619,-0.663 -1.547,-0.663 -0.928,0 -1.591,0.663 -0.62,0.62 -0.62,1.548 0,0.928 0.62,1.591 0.663,0.62 1.591,0.62 0.929,0 1.547,-0.62 0.664,-0.663 0.664,-1.591 0,-0.929 -0.664,-1.548 z m 5.748,19.01 0,-18.125 q 0,-4.863 -4.642,-4.863 -1.548,0 -2.741,0.885 2.343,0.088 3.979,1.326 1.635,1.194 1.635,3.316 0,2.254 -1.635,3.67 -1.592,1.414 -3.89,1.414 -2.3,0 -3.936,-1.415 -1.591,-1.415 -1.591,-3.67 0,-4.067 2.697,-6.764 2.74,-2.74 7.03,-2.74 4.022,0 6.852,2.52 2.873,2.52 2.873,6.764 l 0,17.682 -6.631,0 z M 262.85,39.118 q 0.664,0.62 1.592,0.62 0.929,0 1.548,-0.62 0.663,-0.663 0.663,-1.591 0,-0.929 -0.663,-1.548 -0.62,-0.663 -1.548,-0.663 -0.928,0 -1.591,0.663 -0.62,0.62 -0.62,1.548 0,0.928 0.62,1.591 z m 7.119,-1.591 0,14.898 q 2.254,2.565 4.863,2.565 3.536,0 3.536,-4.421 l 0,-17.684 6.632,0 0,17.684 q 0,4.642 -1.99,6.985 -1.945,2.299 -5.526,2.299 -4.642,0 -7.825,-3.625 -1.15,3.625 -5.659,3.625 -2.874,0 -5.084,-1.106 l 1.105,-3.094 q 0.929,0.398 1.857,0.398 1.459,0 1.459,-1.946 l 0,-10.61 q 0,-0.707 0.221,-1.15 -2.034,-0.22 -3.36,-1.503 -1.282,-1.282 -1.282,-3.315 0,-2.255 1.592,-3.67 1.635,-1.415 3.934,-1.415 2.3,0 3.89,1.415 1.637,1.415 1.637,3.67 z" />
      </g>
      <g
         id="text4187"
         style="font-style:normal;font-weight:normal;font-size:68.16164398px;line-height:125%;font-family:sans-serif;letter-spacing:0px;word-spacing:0px;fill:#ffffff;fill-opacity:0.94999999;stroke:none;stroke-width:1px;stroke-linecap:butt;stroke-linejoin:miter;stroke-opacity:1">
        <path
           id="path4192"
           style="font-style:normal;font-variant:normal;font-weight:normal;font-stretch:normal;font-family:BoonBaan;-inkscape-font-specification:BoonBaan;fill:#ffffff;fill-opacity:0.94999999"
           d="m 163.37224,437.04782 q -0.79522,-0.85202 -1.98805,-0.85202 -1.19283,0 -2.04485,0.85202 -0.79522,0.79522 -0.79522,1.98805 0,1.19283 0.79522,2.04485 0.85202,0.79522 2.04485,0.79522 1.19283,0 1.98805,-0.79522 0.85202,-0.85202 0.85202,-2.04485 0,-1.19283 -0.85202,-1.98805 z m -1.42004,-3.69209 q 2.32886,0 3.9761,1.59044 1.70404,1.59044 1.70404,4.0897 0,2.55606 -1.81764,4.2601 -1.81765,1.70404 -4.43051,1.70404 -3.01047,0 -5.22573,-2.21525 -2.15845,-2.21526 -2.15845,-5.73694 0,-4.0329 2.78327,-6.53216 2.78327,-2.55606 6.87296,-2.55606 9.94024,0 13.23472,12.4963 1.53364,-0.1136 1.53364,-2.27205 l 0,-18.17644 q 0,-3.29448 -2.66966,-5.16893 -2.61287,-1.93124 -6.98657,-1.93124 -4.37371,0 -7.04337,1.93124 -2.61287,1.87445 -2.61287,5.16893 l -5.11212,0 q 0,-4.88492 4.2033,-8.1226 4.2033,-3.23768 10.56506,-3.23768 6.36175,0 10.56505,3.23768 4.2033,3.23768 4.2033,8.1226 l 0,18.17644 q 0,3.01047 -0.90882,4.3737 -0.85202,1.30643 -3.63529,1.30643 l -5.11212,0 q -2.38566,-12.4963 -10.22425,-12.4963 -2.04484,0 -3.57848,0.96563 -1.47684,0.90882 -2.04485,2.44245 1.53364,-1.42003 3.91929,-1.42003 z" />
        <path
           id="path4194"
           style="font-style:normal;font-variant:normal;font-weight:normal;font-stretch:normal;font-family:BoonBaan;-inkscape-font-specification:BoonBaan;fill:#ffffff;fill-opacity:0.94999999"
           d="m 199.67186,417.73535 q -0.79522,-0.85202 -1.98804,-0.85202 -1.19283,0 -2.04485,0.85202 -0.79522,0.79522 -0.79522,1.98805 0,1.19283 0.79522,2.04485 0.85202,0.79522 2.04485,0.79522 1.19282,0 1.98804,-0.79522 0.85202,-0.85202 0.85202,-2.04485 0,-1.19283 -0.85202,-1.98805 z m 14.48435,26.12863 -5.11212,0 0,-23.28856 q 0,-7.38418 -6.53216,-7.38418 -2.49926,0 -4.3737,0.85202 2.49926,0.17041 4.1465,1.76085 1.64724,1.53363 1.64724,3.91929 0,2.55606 -1.81765,4.2601 -1.81764,1.70404 -4.4305,1.70404 -2.61287,0 -4.43051,-1.70404 -1.81765,-1.70404 -1.81765,-4.2601 0,-4.65771 3.12408,-7.55458 3.18088,-2.95367 7.95219,-2.95367 5.05532,0 8.3498,2.84007 3.29448,2.78326 3.29448,8.5202 l 0,23.28856 z" />
        <path
           id="path4196"
           style="font-style:normal;font-variant:normal;font-weight:normal;font-stretch:normal;font-family:BoonBaan;-inkscape-font-specification:BoonBaan;fill:#ffffff;fill-opacity:0.94999999"
           d="m 232.56341,433.07172 q -0.79522,-0.85202 -1.98805,-0.85202 -1.19283,0 -2.04485,0.85202 -0.79522,0.79522 -0.79522,1.98805 0,1.19283 0.79522,2.04485 0.85202,0.79522 2.04485,0.79522 1.19283,0 1.98805,-0.79522 0.85202,-0.85202 0.85202,-2.04485 0,-1.19283 -0.85202,-1.98805 z m -6.41855,-2.27205 q 1.81764,-1.70404 4.4305,-1.70404 2.61286,0 4.43051,1.70404 1.81764,1.70404 1.81764,4.2601 0,2.04485 -1.19283,3.46488 -1.19282,1.42004 -3.06727,1.93125 2.15845,0.56801 5.39613,0.56801 3.80569,0 6.13455,-2.04484 2.38566,-2.04485 2.38566,-5.33933 l 0,-13.63233 q 0,-3.12408 -2.44246,-5.11213 -2.38566,-1.98804 -6.64576,-1.98804 -4.26011,0 -6.70257,1.98804 -2.38565,1.98805 -2.38565,5.11213 l -5.11213,0 q 0,-4.88492 4.0897,-8.1226 4.0897,-3.23768 10.11065,-3.23768 6.13454,0 10.16744,3.12408 4.0329,3.06727 4.0329,8.2362 l 0,13.63233 q 0,3.91929 -2.21525,6.58896 -2.15846,2.66966 -5.11213,3.69208 -2.95367,1.07923 -6.30495,1.07923 -2.32886,0 -4.60091,-0.56801 -2.27206,-0.51122 -4.37371,-1.59044 -2.10165,-1.13603 -3.40808,-3.12408 -1.24963,-2.04485 -1.24963,-4.65771 0,-2.55606 1.81765,-4.2601 z" />
        <path
           id="path4198"
           style="font-style:normal;font-variant:normal;font-weight:normal;font-stretch:normal;font-family:BoonBaan;-inkscape-font-specification:BoonBaan;fill:#ffffff;fill-opacity:0.94999999"
           d="m 267.26549,413.19124 q -0.79522,-0.85202 -1.98804,-0.85202 -1.19283,0 -2.04485,0.85202 -0.79522,0.79522 -0.79522,1.98805 0,1.19283 0.79522,2.04485 0.85202,0.79522 2.04485,0.79522 1.19282,0 1.98804,-0.79522 0.85202,-0.85202 0.85202,-2.04485 0,-1.19283 -0.85202,-1.98805 z m -4.82811,13.63233 q 0,-0.62481 0.1136,-1.19283 0.1136,-0.56801 0.34081,-1.07922 0.28401,-0.51121 0.45441,-0.85202 0.2272,-0.34081 0.68162,-0.85202 0.51121,-0.51122 0.68161,-0.68162 0.22721,-0.1704 0.79522,-0.68162 0.62482,-0.56801 0.73842,-0.68161 -0.34081,0.0568 -0.96562,0.0568 -2.61287,0 -4.43051,-1.53364 -1.81764,-1.59044 -1.81764,-4.1465 0,-2.55606 1.81764,-4.2601 1.81764,-1.70404 4.43051,-1.70404 2.95367,0 4.88491,1.81764 1.93125,1.81765 1.93125,4.43051 0,2.32885 -1.13603,4.2033 -1.13602,1.87444 -2.27205,3.57849 -1.13603,1.70404 -1.13603,3.57848 l 0,7.38418 q 0,2.84007 2.61286,4.71451 2.66967,1.81765 7.04337,1.81765 4.37371,0 6.98657,-1.81765 2.66967,-1.87444 2.66967,-4.71451 l 0,-38.05692 5.11212,0 0,38.05692 q 0,5.45293 -4.2601,8.1226 -4.2033,2.66966 -10.50826,2.66966 -6.30495,0 -10.56505,-2.66966 -4.2033,-2.66967 -4.2033,-8.1226 l 0,-7.38418 z" />
        <path
           id="path4200"
           style="font-style:normal;font-variant:normal;font-weight:normal;font-stretch:normal;font-family:BoonBaan;-inkscape-font-specification:BoonBaan;fill:#ffffff;fill-opacity:0.94999999"
           d="m 308.70386,413.19124 q -0.79522,-0.85202 -1.98805,-0.85202 -1.19283,0 -2.04485,0.85202 -0.79522,0.79522 -0.79522,1.98805 0,1.19283 0.79522,2.04485 0.85202,0.79522 2.04485,0.79522 1.19283,0 1.98805,-0.79522 0.85202,-0.85202 0.85202,-2.04485 0,-1.19283 -0.85202,-1.98805 z m 21.30051,-3.40808 0,23.28856 -0.45441,0.11361 q 3.29448,1.64724 3.29448,5.28252 0,2.55606 -1.81764,4.26011 -1.81764,1.70404 -4.43051,1.70404 -2.04485,0 -3.57848,-1.13603 -1.53364,-1.13603 -2.10165,-2.95367 -2.89687,4.0897 -7.38418,4.0897 -4.60091,0 -7.15698,-2.72647 -2.49926,-2.78327 -2.49926,-8.06579 l 0,-6.81617 q 0,-0.62481 0.11361,-1.19283 0.1136,-0.56801 0.34081,-1.07922 0.284,-0.51121 0.45441,-0.85202 0.2272,-0.34081 0.68161,-0.85202 0.51122,-0.51122 0.68162,-0.68162 0.2272,-0.1704 0.79522,-0.68162 0.62481,-0.56801 0.73842,-0.68161 -0.34081,0.0568 -0.96563,0.0568 -2.61286,0 -4.4305,-1.53364 -1.81765,-1.59044 -1.81765,-4.1465 0,-2.55606 1.81765,-4.2601 1.81764,-1.70404 4.4305,-1.70404 2.95367,0 4.88492,1.81764 1.93125,1.81765 1.93125,4.43051 0,2.32885 -1.13603,4.2033 -1.13603,1.87444 -2.27205,3.57849 -1.13603,1.70404 -1.13603,3.57848 l 0,6.81617 q 0,6.53215 5.11212,6.53215 1.76084,0 3.23768,-0.90882 1.47683,-0.96562 2.38566,-2.15845 0.90882,-1.19283 2.27205,-2.44246 1.42004,-1.24963 2.89687,-1.70404 l 0,-23.17496 5.11212,0 z m -5.45293,30.72954 q 0.85202,0.79522 2.04485,0.79522 1.19283,0 1.98805,-0.79522 0.85202,-0.85202 0.85202,-2.04485 0,-1.19283 -0.85202,-1.98804 -0.79522,-0.85203 -1.98805,-0.85203 -1.19283,0 -2.04485,0.85203 -0.79522,0.79521 -0.79522,1.98804 0,1.19283 0.79522,2.04485 z" />
        <path
           id="path4202"
           style="font-style:normal;font-variant:normal;font-weight:normal;font-stretch:normal;font-family:BoonBaan;-inkscape-font-specification:BoonBaan;fill:#ffffff;fill-opacity:0.94999999"
           d="m 336.8383,388.48265 q 1.53363,-0.85202 3.97609,-0.85202 2.66967,0 3.8625,1.59044 1.24963,1.59043 1.24963,4.08969 l 0,3.9761 q 0,1.93125 0.73841,2.84007 0.73842,0.85202 2.66967,0.85202 l 7.95219,0 0,3.69209 q -4.43051,0 -5.90734,1.59044 -1.47684,1.53363 -1.47684,4.65771 l 0,21.69812 q 0.68162,-0.1136 1.13603,-0.1136 2.61286,0 4.43051,1.70404 1.81764,1.70404 1.81764,4.2601 0,2.55606 -1.81764,4.26011 -1.81765,1.70404 -4.43051,1.70404 -2.61286,0 -4.43051,-1.70404 -1.81764,-1.70405 -1.81764,-4.26011 l 0,-27.54866 q 0,-4.0897 3.23768,-6.30495 -3.01047,-0.34081 -4.54411,-1.98805 -1.53364,-1.64724 -1.53364,-4.2033 l 0,-3.9761 q 0,-1.98805 -0.34081,-2.66966 -0.284,-0.73842 -1.36323,-0.73842 -1.24963,0 -2.55606,0.56801 l -0.85202,-3.12407 z m 16.18839,47.99716 q -0.79522,-0.85203 -1.98805,-0.85203 -1.19283,0 -2.04485,0.85203 -0.79522,0.79521 -0.79522,1.98804 0,1.19283 0.79522,2.04485 0.85202,0.79522 2.04485,0.79522 1.19283,0 1.98805,-0.79522 0.85202,-0.85202 0.85202,-2.04485 0,-1.19283 -0.85202,-1.98804 z" />
        <path
           id="path4204"
           style="font-style:normal;font-variant:normal;font-weight:normal;font-stretch:normal;font-family:BoonBaan;-inkscape-font-specification:BoonBaan;fill:#ffffff;fill-opacity:0.94999999"
           d="m 370.60849,413.19124 q -0.79522,-0.85202 -1.98804,-0.85202 -1.19283,0 -2.04485,0.85202 -0.79522,0.79522 -0.79522,1.98805 0,1.19283 0.79522,2.04485 0.85202,0.79522 2.04485,0.79522 1.19282,0 1.98804,-0.79522 0.85202,-0.85202 0.85202,-2.04485 0,-1.19283 -0.85202,-1.98805 z m 0.28401,13.63233 0,9.65624 q 0,3.69208 4.2601,3.69208 4.26011,0 4.26011,-3.69208 l 0,-19.31247 q 0,-3.69209 2.61286,-5.79374 2.61286,-2.15845 6.75936,-2.15845 4.1465,0 6.75937,2.15845 2.61286,2.10165 2.61286,5.79374 l 0,26.69664 -5.11213,0 0,-26.69664 q 0,-3.69209 -4.2601,-3.69209 -4.2601,0 -4.2601,3.69209 l 0,19.31247 q 0,3.69208 -2.61286,5.85054 -2.61287,2.10165 -6.75937,2.10165 -4.1465,0 -6.75936,-2.10165 -2.61286,-2.15846 -2.61286,-5.85054 l 0,-9.65624 q 0,-0.62481 0.1136,-1.19283 0.1136,-0.56801 0.34081,-1.07922 0.28401,-0.51121 0.45441,-0.85202 0.2272,-0.34081 0.68162,-0.85202 0.51121,-0.51122 0.68161,-0.68162 0.22721,-0.1704 0.79522,-0.68162 0.62482,-0.56801 0.73842,-0.68161 -0.34081,0.0568 -0.96562,0.0568 -2.61287,0 -4.43051,-1.53364 -1.81764,-1.59044 -1.81764,-4.1465 0,-2.55606 1.81764,-4.2601 1.81764,-1.70404 4.43051,-1.70404 2.95367,0 4.88491,1.81764 1.93125,1.81765 1.93125,4.43051 0,2.32885 -1.13603,4.2033 -1.13602,1.87444 -2.27205,3.57849 -1.13603,1.70404 -1.13603,3.57848 z" />
        <path
           id="path4206"
           style="font-style:normal;font-variant:normal;font-weight:normal;font-stretch:normal;font-family:BoonBaan;-inkscape-font-specification:BoonBaan;fill:#ffffff;fill-opacity:0.94999999"
           d="m 416.58743,417.22414 q 0.85202,0.79522 2.04485,0.79522 1.19283,0 1.98805,-0.79522 0.85202,-0.85202 0.85202,-2.04485 0,-1.19283 -0.85202,-1.98805 -0.79522,-0.85202 -1.98805,-0.85202 -1.19283,0 -2.04485,0.85202 -0.79522,0.79522 -0.79522,1.98805 0,1.19283 0.79522,2.04485 z m 2.04485,3.9193 q -2.27206,0 -3.9193,-1.47684 -1.64724,-1.47684 -1.98804,-3.74889 -0.34081,0.90882 -0.34081,2.38566 0,3.18087 3.35128,5.45293 3.35128,2.21525 7.72498,2.21525 l 0,3.40808 q -9.94023,0 -9.94023,4.26011 0,3.12407 2.66966,5.11212 2.66966,1.98805 7.27057,1.98805 4.60092,0 7.27058,-1.98805 2.66966,-1.98805 2.66966,-5.11212 l 0,-23.85658 5.11213,0 0,23.85658 q 0,5.16892 -4.31691,8.293 -4.3169,3.06727 -10.73546,3.06727 -6.24815,0 -10.67865,-3.23768 -4.37371,-3.29448 -4.37371,-8.12259 0,-4.77132 6.19135,-6.64576 -2.78327,-1.53364 -4.48731,-3.8057 -1.70404,-2.27205 -1.70404,-4.88491 0,-4.0897 2.84007,-6.58896 2.89687,-2.49926 7.38418,-2.49926 2.61286,0 4.43051,1.70404 1.81764,1.70404 1.81764,4.2601 0,2.55606 -1.81764,4.2601 -1.81765,1.70405 -4.43051,1.70405 z" />
        <path
           id="path4208"
           style="font-style:normal;font-variant:normal;font-weight:normal;font-stretch:normal;font-family:BoonBaan;-inkscape-font-specification:BoonBaan;fill:#ffffff;fill-opacity:0.94999999"
           d="m 477.48383,433.07172 q -0.79522,-0.85202 -1.98805,-0.85202 -1.19283,0 -2.04485,0.85202 -0.79522,0.79522 -0.79522,1.98805 0,1.19283 0.79522,2.04485 0.85202,0.79522 2.04485,0.79522 1.19283,0 1.98805,-0.79522 0.85202,-0.85202 0.85202,-2.04485 0,-1.19283 -0.85202,-1.98805 z m -6.41855,-2.27205 q 1.81764,-1.70404 4.4305,-1.70404 2.61287,0 4.43051,1.70404 1.81764,1.70404 1.81764,4.2601 0,1.87445 -1.07922,3.29448 -1.02243,1.36323 -2.72647,1.98805 3.06727,0.68161 6.07775,0.68161 4.3169,0 6.98657,-1.87444 2.66966,-1.87445 2.66966,-4.94172 l 0,-10.79226 q 0,-0.79522 0.34081,-1.47684 -4.99852,2.32886 -10.56506,2.32886 -5.90734,0 -10.33785,-1.76084 -4.4305,-1.81765 -4.4305,-4.48731 0,-3.63529 4.4305,-6.47536 4.43051,-2.89687 10.33785,-2.89687 7.04337,0 11.07627,4.43051 -0.28401,-0.85202 -0.28401,-1.59044 l 0,-5.11212 4.54411,0 0,27.83267 q 0,5.05532 -4.3737,7.95219 -4.37371,2.84007 -10.39465,2.84007 -5.90734,0 -10.33785,-2.78327 -4.43051,-2.78326 -4.43051,-7.15697 0,-2.55606 1.81765,-4.2601 z m 23.06135,-12.78031 q -1.02242,-2.32886 -3.91929,-3.86249 -2.89687,-1.53364 -6.75937,-1.53364 -4.2033,0 -6.92976,1.81764 -2.72647,1.76085 -2.72647,3.29448 0,1.07923 2.84007,2.10165 2.84007,1.02243 6.81616,1.02243 6.19135,0 10.67866,-2.84007 z" />
        <path
           id="path4210"
           style="font-style:normal;font-variant:normal;font-weight:normal;font-stretch:normal;font-family:BoonBaan;-inkscape-font-specification:BoonBaan;fill:#ffffff;fill-opacity:0.94999999"
           d="m 480.65227,392.74275 4.54411,0 4.54411,0 q 3.40809,0 5.39613,1.87445 1.98805,1.81764 1.98805,4.94171 0,1.30644 -0.85202,3.01048 -0.90882,1.64724 -1.98805,2.10165 l -4.54411,0 q 1.02243,-0.85202 1.93125,-2.32886 0.90882,-1.53364 0.90882,-2.78327 0,-1.64724 -0.79522,-2.49926 -0.85202,-0.90882 -3.18087,-0.90882 l -3.40809,0 -3.40808,0 q -2.32885,0 -3.12407,0.90882 -0.85202,0.85202 -0.85202,2.49926 0,1.24963 0.90882,2.78327 0.90882,1.47684 1.93124,2.32886 l -4.5441,0 q -1.07923,-0.45441 -1.93125,-2.10165 -0.90882,-1.70404 -0.90882,-3.01048 0,-3.12407 1.98804,-4.94171 1.98805,-1.87445 5.39613,-1.87445 z" />
        <path
           id="path4212"
           style="font-style:normal;font-variant:normal;font-weight:normal;font-stretch:normal;font-family:BoonBaan;-inkscape-font-specification:BoonBaan;fill:#ffffff;fill-opacity:0.94999999"
           d="m 515.0171,413.19124 q -0.79522,-0.85202 -1.98804,-0.85202 -1.19283,0 -2.04485,0.85202 -0.79522,0.79522 -0.79522,1.98805 0,1.19283 0.79522,2.04485 0.85202,0.79522 2.04485,0.79522 1.19282,0 1.98804,-0.79522 0.85202,-0.85202 0.85202,-2.04485 0,-1.19283 -0.85202,-1.98805 z m -4.82811,13.63233 q 0,-0.62481 0.1136,-1.19283 0.1136,-0.56801 0.34081,-1.07922 0.284,-0.51121 0.45441,-0.85202 0.2272,-0.34081 0.68162,-0.85202 0.51121,-0.51122 0.68161,-0.68162 0.22721,-0.1704 0.79522,-0.68162 0.62482,-0.56801 0.73842,-0.68161 -0.34081,0.0568 -0.96562,0.0568 -2.61287,0 -4.43051,-1.53364 -1.81765,-1.59044 -1.81765,-4.1465 0,-2.55606 1.81765,-4.2601 1.81764,-1.70404 4.43051,-1.70404 2.95367,0 4.88491,1.81764 1.93125,1.81765 1.93125,4.43051 0,2.32885 -1.13603,4.2033 -1.13602,1.87444 -2.27205,3.57849 -1.13603,1.70404 -1.13603,3.57848 l 0,7.38418 q 0,2.84007 2.61286,4.71451 2.66967,1.81765 7.04337,1.81765 4.37371,0 6.98657,-1.81765 2.66967,-1.87444 2.66967,-4.71451 l 0,-38.05692 5.11212,0 0,38.05692 q 0,5.45293 -4.2601,8.1226 -4.2033,2.66966 -10.50826,2.66966 -6.30495,0 -10.56505,-2.66966 -4.2033,-2.66967 -4.2033,-8.1226 l 0,-7.38418 z" />
        <path
           id="path4214"
           style="font-style:normal;font-variant:normal;font-weight:normal;font-stretch:normal;font-family:BoonBaan;-inkscape-font-specification:BoonBaan;fill:#ffffff;fill-opacity:0.94999999"
           d="m 553.3314,444.432 0,-3.69209 q 1.70404,0 1.70404,-2.55606 l 0,-17.15402 q -0.68161,0.11361 -1.13602,0.11361 -2.61287,0 -4.43051,-1.70405 -1.81764,-1.70404 -1.81764,-4.2601 0,-2.55606 1.81764,-4.2601 1.81764,-1.70404 4.43051,-1.70404 2.10165,0 3.74889,1.13602 1.64724,1.13603 2.21525,3.01048 4.0329,-4.1465 9.94024,-4.1465 4.65771,0 7.44098,2.84007 2.78327,2.78326 2.78327,7.95219 l 0,23.85657 -5.11213,0 0,-23.85657 q 0,-3.23768 -1.30643,-4.88492 -1.30643,-1.64724 -4.94172,-1.64724 -5.33933,0 -8.5202,3.91929 l 0,20.78931 q 0,2.89687 -1.53364,4.60091 -1.47683,1.64724 -5.28253,1.64724 z m 2.55606,-31.24076 q -0.79521,-0.85202 -1.98804,-0.85202 -1.19283,0 -2.04485,0.85202 -0.79522,0.79522 -0.79522,1.98805 0,1.19283 0.79522,2.04485 0.85202,0.79522 2.04485,0.79522 1.19283,0 1.98804,-0.79522 0.85203,-0.85202 0.85203,-2.04485 0,-1.19283 -0.85203,-1.98805 z" />
        <path
           id="path4216"
           style="font-style:normal;font-variant:normal;font-weight:normal;font-stretch:normal;font-family:BoonBaan;-inkscape-font-specification:BoonBaan;fill:#ffffff;fill-opacity:0.94999999"
           d="m 598.53286,433.07172 q -0.79522,-0.85202 -1.98805,-0.85202 -1.19282,0 -2.04485,0.85202 -0.79521,0.79522 -0.79521,1.98805 0,1.19283 0.79521,2.04485 0.85203,0.79522 2.04485,0.79522 1.19283,0 1.98805,-0.79522 0.85202,-0.85202 0.85202,-2.04485 0,-1.19283 -0.85202,-1.98805 z m -6.41855,-2.27205 q 1.81764,-1.70404 4.4305,-1.70404 2.61287,0 4.43051,1.70404 1.81764,1.70404 1.81764,4.2601 0,2.04485 -1.19282,3.46488 -1.19283,1.42004 -3.06728,1.93125 2.15845,0.56801 5.39613,0.56801 3.80569,0 6.13455,-2.04484 2.38566,-2.04485 2.38566,-5.33933 l 0,-13.63233 q 0,-3.12408 -2.44246,-5.11213 -2.38566,-1.98804 -6.64576,-1.98804 -4.2601,0 -6.70256,1.98804 -2.38566,1.98805 -2.38566,5.11213 l -5.11212,0 q 0,-4.88492 4.08969,-8.1226 4.0897,-3.23768 10.11065,-3.23768 6.13455,0 10.16744,3.12408 4.0329,3.06727 4.0329,8.2362 l 0,13.63233 q 0,3.91929 -2.21525,6.58896 -2.15845,2.66966 -5.11213,3.69208 -2.95367,1.07923 -6.30495,1.07923 -2.32885,0 -4.60091,-0.56801 -2.27205,-0.51122 -4.3737,-1.59044 -2.10166,-1.13603 -3.40809,-3.12408 -1.24963,-2.04485 -1.24963,-4.65771 0,-2.55606 1.81765,-4.2601 z" />
        <path
           id="path4218"
           style="font-style:normal;font-variant:normal;font-weight:normal;font-stretch:normal;font-family:BoonBaan;-inkscape-font-specification:BoonBaan;fill:#ffffff;fill-opacity:0.94999999"
           d="m 601.71021,392.17474 4.54411,0 0,10.22424 -4.54411,0 0,-10.22424 z" />
        <path
           id="path4220"
           style="font-style:normal;font-variant:normal;font-weight:normal;font-stretch:normal;font-family:BoonBaan;-inkscape-font-specification:BoonBaan;fill:#ffffff;fill-opacity:0.94999999"
           d="m 633.80298,417.73535 q -0.79522,-0.85202 -1.98805,-0.85202 -1.19282,0 -2.04485,0.85202 -0.79521,0.79522 -0.79521,1.98805 0,1.19283 0.79521,2.04485 0.85203,0.79522 2.04485,0.79522 1.19283,0 1.98805,-0.79522 0.85202,-0.85202 0.85202,-2.04485 0,-1.19283 -0.85202,-1.98805 z m 14.48435,26.12863 -5.11212,0 0,-23.28856 q 0,-7.38418 -6.53216,-7.38418 -2.49926,0 -4.3737,0.85202 2.49926,0.17041 4.1465,1.76085 1.64723,1.53363 1.64723,3.91929 0,2.55606 -1.81764,4.2601 -1.81764,1.70404 -4.43051,1.70404 -2.61286,0 -4.4305,-1.70404 -1.81765,-1.70404 -1.81765,-4.2601 0,-4.65771 3.12408,-7.55458 3.18088,-2.95367 7.95219,-2.95367 5.05532,0 8.3498,2.84007 3.29448,2.78326 3.29448,8.5202 l 0,23.28856 z" />
        <path
           id="path4222"
           style="font-style:normal;font-variant:normal;font-weight:normal;font-stretch:normal;font-family:BoonBaan;-inkscape-font-specification:BoonBaan;fill:#ffffff;fill-opacity:0.94999999"
           d="m 670.67061,436.47981 q -0.79522,-0.85203 -1.98805,-0.85203 -1.19283,0 -2.04485,0.85203 -0.79522,0.79521 -0.79522,1.98804 0,1.19283 0.79522,2.04485 0.85202,0.79522 2.04485,0.79522 1.19283,0 1.98805,-0.79522 0.85202,-0.85202 0.85202,-2.04485 0,-1.19283 -0.85202,-1.98804 z m -9.94024,-37.48891 -3.9761,1.70404 q -1.70404,-2.04485 -1.70404,-4.54411 0,-3.46488 2.89687,-5.96414 2.95367,-2.55606 7.89539,-2.55606 4.94172,0 7.83859,2.55606 2.95367,2.49926 2.95367,5.96414 0,1.87445 -0.96562,3.40808 -0.90882,1.47684 -2.27205,2.49926 -1.30644,1.02243 -2.66967,2.10166 -1.30643,1.02242 -2.27205,2.61286 -0.90883,1.59044 -0.90883,3.57848 l 0,22.26614 q 0.68162,-0.1136 1.13603,-0.1136 2.61286,0 4.43051,1.70404 1.81764,1.70404 1.81764,4.2601 0,2.55606 -1.81764,4.26011 -1.81765,1.70404 -4.43051,1.70404 -2.61286,0 -4.43051,-1.70404 -1.81764,-1.70405 -1.81764,-4.26011 l 0,-28.11668 q 0,-2.49926 1.02243,-4.3737 1.07922,-1.93125 2.55606,-3.12408 1.53363,-1.19282 3.01047,-2.15845 1.53364,-0.96562 2.55606,-2.10165 1.07923,-1.13603 1.07923,-2.44246 0,-2.10165 -1.76085,-3.57848 -1.76084,-1.53364 -5.05532,-1.53364 -3.06727,0 -4.65771,1.53364 -1.59044,1.47683 -1.59044,3.57848 0,1.42004 1.13603,2.84007 z" />
        <path
           id="path4224"
           style="font-style:normal;font-variant:normal;font-weight:normal;font-stretch:normal;font-family:BoonBaan;-inkscape-font-specification:BoonBaan;fill:#ffffff;fill-opacity:0.94999999"
           d="m 698.59023,426.99398 q -0.73841,-0.73842 -1.81764,-0.73842 -1.07923,0 -1.81764,0.73842 -0.73842,0.73841 -0.73842,1.81764 0,1.07923 0.73842,1.81764 0.73841,0.73842 1.81764,0.73842 1.07923,0 1.81764,-0.73842 0.73842,-0.73841 0.73842,-1.81764 0,-1.07923 -0.73842,-1.81764 z m 13.23472,16.87 -5.11212,0 0,-23.85657 q 0,-3.12408 -2.66967,-5.11213 -2.66966,-1.98804 -7.27057,-1.98804 -4.60091,0 -7.27058,1.98804 -2.66966,1.98805 -2.66966,5.11213 0,3.23768 1.47684,5.33933 3.97609,-1.93125 8.4634,-1.93125 2.38566,0 4.0329,1.53364 1.64724,1.53363 1.64724,3.86249 0,2.32886 -1.64724,3.86249 -1.64724,1.53364 -4.0329,1.53364 -2.38566,0 -4.0329,-1.53364 -1.64724,-1.53363 -1.64724,-3.86249 0,-0.39761 0.11361,-0.96562 -2.04485,0.79522 -3.35129,2.44246 -1.30643,1.59043 -1.30643,3.91929 0,1.81764 0.85202,3.12408 0.85202,1.24963 2.21526,1.81764 1.42003,0.56801 2.61286,0.79522 1.24963,0.2272 2.55606,0.2272 l 0,4.26011 q -5.90734,0 -9.48583,-2.78327 -3.57848,-2.84007 -3.57848,-7.44098 0,-3.86249 3.23767,-6.70256 -3.23767,-2.89687 -3.23767,-7.49778 0,-4.82812 4.3737,-8.0658 4.43051,-3.29448 10.67866,-3.29448 6.41855,0 10.73546,3.12408 4.3169,3.06727 4.3169,8.2362 l 0,23.85657 z" />
        <path
           id="path4226"
           style="font-style:normal;font-variant:normal;font-weight:normal;font-stretch:normal;font-family:BoonBaan;-inkscape-font-specification:BoonBaan;fill:#ffffff;fill-opacity:0.94999999"
           d="m 736.00993,408.64713 q 6.19135,0 10.33785,3.12408 4.1465,3.06727 4.1465,8.2362 l -4.82811,0 q 0,-3.12408 -2.66967,-5.22573 -2.66966,-2.15845 -6.98657,-2.15845 -4.2033,0 -6.92976,1.81764 -2.72647,1.76085 -2.72647,4.1465 0,0.68162 0.28401,1.24963 0.28401,0.51122 0.96562,0.96563 0.68162,0.45441 1.30643,0.79522 0.68162,0.3408 1.81765,0.73841 1.19283,0.34081 1.98805,0.56802 0.79521,0.1704 2.21525,0.56801 1.47683,0.34081 2.21525,0.51121 6.53216,1.76085 8.80421,2.95367 5.11213,2.66967 5.11213,7.55459 0,2.89687 -1.30643,4.99852 -1.24963,2.10165 -3.46489,3.29448 -2.21525,1.13602 -4.77131,1.64724 -2.55606,0.56801 -5.50974,0.56801 -2.32885,0 -4.77131,-0.56801 -2.38566,-0.51122 -4.65771,-1.59044 -2.21526,-1.13603 -3.63529,-3.12408 -1.42003,-2.04485 -1.42003,-4.65771 0,-2.55606 1.81764,-4.2601 1.81764,-1.70404 4.43051,-1.70404 2.61286,0 4.4305,1.70404 1.81765,1.70404 1.81765,4.2601 0,1.93125 -1.13603,3.35128 -1.07923,1.42004 -2.89687,1.98805 2.78327,0.62481 6.02094,0.62481 4.43051,0 7.15698,-1.59043 2.78326,-1.59044 2.78326,-4.37371 0,-1.42003 -0.73841,-2.49926 -0.68162,-1.07923 -2.21526,-1.81764 -1.47683,-0.73842 -2.95367,-1.19283 -1.42003,-0.45441 -3.69209,-1.07923 -0.62481,-0.1704 -0.90882,-0.2272 -0.56801,-0.17041 -2.66966,-0.62482 -2.04485,-0.45441 -3.12408,-0.73842 -1.07922,-0.3408 -2.89687,-1.07922 -1.76084,-0.73842 -2.72646,-1.53364 -0.96563,-0.79522 -1.76085,-2.10165 -0.73841,-1.36323 -0.73841,-3.01047 0,-4.54411 4.2033,-7.49778 4.2033,-3.01048 10.28104,-3.01048 z m -6.24815,24.42459 q -0.79522,-0.85202 -1.98804,-0.85202 -1.19283,0 -2.04485,0.85202 -0.79522,0.79522 -0.79522,1.98805 0,1.19283 0.79522,2.04485 0.85202,0.79522 2.04485,0.79522 1.19282,0 1.98804,-0.79522 0.85202,-0.85202 0.85202,-2.04485 0,-1.19283 -0.85202,-1.98805 z" />
        <path
           id="path4228"
           style="font-style:normal;font-variant:normal;font-weight:normal;font-stretch:normal;font-family:BoonBaan;-inkscape-font-specification:BoonBaan;fill:#ffffff;fill-opacity:0.94999999"
           d="m 772.91307,436.47981 q -0.79522,-0.85203 -1.98805,-0.85203 -1.19283,0 -2.04485,0.85203 -0.79522,0.79521 -0.79522,1.98804 0,1.19283 0.79522,2.04485 0.85202,0.79522 2.04485,0.79522 1.19283,0 1.98805,-0.79522 0.85202,-0.85202 0.85202,-2.04485 0,-1.19283 -0.85202,-1.98804 z m -9.94024,-37.48891 -3.97609,1.70404 q -1.70405,-2.04485 -1.70405,-4.54411 0,-3.46488 2.89687,-5.96414 2.95368,-2.55606 7.89539,-2.55606 4.94172,0 7.83859,2.55606 2.95368,2.49926 2.95368,5.96414 0,1.87445 -0.96563,3.40808 -0.90882,1.47684 -2.27205,2.49926 -1.30643,1.02243 -2.66967,2.10166 -1.30643,1.02242 -2.27205,2.61286 -0.90882,1.59044 -0.90882,3.57848 l 0,22.26614 q 0.68161,-0.1136 1.13602,-0.1136 2.61287,0 4.43051,1.70404 1.81764,1.70404 1.81764,4.2601 0,2.55606 -1.81764,4.26011 -1.81764,1.70404 -4.43051,1.70404 -2.61286,0 -4.4305,-1.70404 -1.81765,-1.70405 -1.81765,-4.26011 l 0,-28.11668 q 0,-2.49926 1.02243,-4.3737 1.07922,-1.93125 2.55606,-3.12408 1.53364,-1.19282 3.01047,-2.15845 1.53364,-0.96562 2.55606,-2.10165 1.07923,-1.13603 1.07923,-2.44246 0,-2.10165 -1.76084,-3.57848 -1.76085,-1.53364 -5.05533,-1.53364 -3.06727,0 -4.65771,1.53364 -1.59044,1.47683 -1.59044,3.57848 0,1.42004 1.13603,2.84007 z" />
        <path
           id="path4230"
           style="font-style:normal;font-variant:normal;font-weight:normal;font-stretch:normal;font-family:BoonBaan;-inkscape-font-specification:BoonBaan;fill:#ffffff;fill-opacity:0.94999999"
           d="m 790.49488,413.19124 q -0.79522,-0.85202 -1.98805,-0.85202 -1.19283,0 -2.04485,0.85202 -0.79522,0.79522 -0.79522,1.98805 0,1.19283 0.79522,2.04485 0.85202,0.79522 2.04485,0.79522 1.19283,0 1.98805,-0.79522 0.85202,-0.85202 0.85202,-2.04485 0,-1.19283 -0.85202,-1.98805 z m 21.30051,-3.40808 0,23.28856 -0.45441,0.11361 q 3.29448,1.64724 3.29448,5.28252 0,2.55606 -1.81764,4.26011 -1.81765,1.70404 -4.43051,1.70404 -2.04485,0 -3.57849,-1.13603 -1.53363,-1.13603 -2.10165,-2.95367 -2.89687,4.0897 -7.38418,4.0897 -4.60091,0 -7.15697,-2.72647 -2.49926,-2.78327 -2.49926,-8.06579 l 0,-6.81617 q 0,-0.62481 0.1136,-1.19283 0.11361,-0.56801 0.34081,-1.07922 0.28401,-0.51121 0.45441,-0.85202 0.22721,-0.34081 0.68162,-0.85202 0.51121,-0.51122 0.68162,-0.68162 0.2272,-0.1704 0.79521,-0.68162 0.62482,-0.56801 0.73842,-0.68161 -0.34081,0.0568 -0.96562,0.0568 -2.61286,0 -4.43051,-1.53364 -1.81764,-1.59044 -1.81764,-4.1465 0,-2.55606 1.81764,-4.2601 1.81765,-1.70404 4.43051,-1.70404 2.95367,0 4.88492,1.81764 1.93124,1.81765 1.93124,4.43051 0,2.32885 -1.13602,4.2033 -1.13603,1.87444 -2.27206,3.57849 -1.13603,1.70404 -1.13603,3.57848 l 0,6.81617 q 0,6.53215 5.11213,6.53215 1.76084,0 3.23768,-0.90882 1.47683,-0.96562 2.38565,-2.15845 0.90882,-1.19283 2.27206,-2.44246 1.42003,-1.24963 2.89687,-1.70404 l 0,-23.17496 5.11212,0 z m -5.45293,30.72954 q 0.85202,0.79522 2.04485,0.79522 1.19283,0 1.98805,-0.79522 0.85202,-0.85202 0.85202,-2.04485 0,-1.19283 -0.85202,-1.98804 -0.79522,-0.85203 -1.98805,-0.85203 -1.19283,0 -2.04485,0.85203 -0.79522,0.79521 -0.79522,1.98804 0,1.19283 0.79522,2.04485 z" />
        <path
           id="path4232"
           style="font-style:normal;font-variant:normal;font-weight:normal;font-stretch:normal;font-family:BoonBaan;-inkscape-font-specification:BoonBaan;fill:#ffffff;fill-opacity:0.94999999"
           d="m 833.11363,426.82357 q -0.79522,-0.85202 -1.98805,-0.85202 -1.19282,0 -2.04484,0.85202 -0.79522,0.79522 -0.79522,1.98805 0,1.19283 0.79522,2.04485 0.85202,0.79522 2.04484,0.79522 1.19283,0 1.98805,-0.79522 0.85202,-0.85202 0.85202,-2.04485 0,-1.19283 -0.85202,-1.98805 z m -1.02242,7.89539 q -0.28401,0.0568 -0.96563,0.0568 -2.61286,0 -4.4305,-1.70404 -1.81765,-1.70404 -1.81765,-4.2601 0,-2.55606 1.81765,-4.2601 1.81764,-1.70404 4.4305,-1.70404 2.95368,0 4.71452,1.81764 1.81764,1.81764 1.81764,4.43051 0,2.27205 -1.02242,4.60091 -0.96563,2.32885 -0.96563,3.35128 0,1.42003 1.07923,2.44246 1.07923,0.96562 2.95367,0.96562 4.48731,0 4.48731,-3.97609 l 0,-16.4724 q 0,-3.12408 -2.44246,-5.11213 -2.38566,-1.98804 -6.64576,-1.98804 -4.2601,0 -6.70256,1.98804 -2.38566,1.98805 -2.38566,5.11213 l -5.11212,0 q 0,-4.88492 4.0897,-8.1226 4.0897,-3.23768 10.11064,-3.23768 6.13455,0 10.16745,3.12408 4.03289,3.06727 4.03289,8.2362 l 0,16.4724 q 0,3.80569 -2.44246,5.90734 -2.44246,2.04485 -7.15697,2.04485 -4.3737,0 -6.47535,-1.81765 -2.10166,-1.81764 -2.10166,-4.4305 0,-1.76085 0.96563,-3.46489 z" />
        <path
           id="path4234"
           style="font-style:normal;font-variant:normal;font-weight:normal;font-stretch:normal;font-family:BoonBaan;-inkscape-font-specification:BoonBaan;fill:#ffffff;fill-opacity:0.94999999"
           d="m 826.65071,400.01333 q 0.68162,0.68161 1.59044,0.68161 0.90882,0 1.59044,-0.68161 0.68162,-0.68162 0.68162,-1.59044 0,-0.90882 -0.68162,-1.59044 -0.68162,-0.68162 -1.59044,-0.68162 -0.90882,0 -1.59044,0.68162 -0.68161,0.68162 -0.68161,1.59044 0,0.90882 0.68161,1.59044 z m 6.02095,0.39761 5.22572,0 q 2.61287,0 3.57849,-1.30644 0.96562,-1.30643 0.96562,-4.0897 l 4.54411,0 q 0,4.65772 -2.32885,6.87297 -2.32886,2.21525 -6.19135,2.21525 l -7.38418,0 q -3.9761,0 -5.96414,-1.47683 -1.98805,-1.53364 -1.98805,-4.2033 0,-2.10165 1.47683,-3.46489 1.47684,-1.36323 3.63529,-1.36323 2.15845,0 3.63529,1.36323 1.47683,1.36324 1.47683,3.46489 0,1.13602 -0.68161,1.98805 z" />
        <path
           id="path4236"
           style="font-style:normal;font-variant:normal;font-weight:normal;font-stretch:normal;font-family:BoonBaan;-inkscape-font-specification:BoonBaan;fill:#ffffff;fill-opacity:0.94999999"
           d="m 862.32197,444.432 0,-3.69209 q 1.70404,0 1.70404,-2.55606 l 0,-17.15402 q -0.68161,0.11361 -1.13602,0.11361 -2.61287,0 -4.43051,-1.70405 -1.81764,-1.70404 -1.81764,-4.2601 0,-2.55606 1.81764,-4.2601 1.81764,-1.70404 4.43051,-1.70404 2.10165,0 3.74889,1.13602 1.64724,1.13603 2.21525,3.01048 4.0329,-4.1465 9.94024,-4.1465 4.65771,0 7.44098,2.84007 2.78327,2.78326 2.78327,7.95219 l 0,23.85657 -5.11213,0 0,-23.85657 q 0,-3.23768 -1.30643,-4.88492 -1.30643,-1.64724 -4.94172,-1.64724 -5.33933,0 -8.5202,3.91929 l 0,20.78931 q 0,2.89687 -1.53364,4.60091 -1.47683,1.64724 -5.28253,1.64724 z m 2.55606,-31.24076 q -0.79521,-0.85202 -1.98804,-0.85202 -1.19283,0 -2.04485,0.85202 -0.79522,0.79522 -0.79522,1.98805 0,1.19283 0.79522,2.04485 0.85202,0.79522 2.04485,0.79522 1.19283,0 1.98804,-0.79522 0.85203,-0.85202 0.85203,-2.04485 0,-1.19283 -0.85203,-1.98805 z" />
        <path
           id="path4238"
           style="font-style:normal;font-variant:normal;font-weight:normal;font-stretch:normal;font-family:BoonBaan;-inkscape-font-specification:BoonBaan;fill:#ffffff;fill-opacity:0.94999999"
           d="m 913.2036,408.64713 q 6.19135,0 10.33785,3.12408 4.1465,3.06727 4.1465,8.2362 l -4.82812,0 q 0,-3.12408 -2.66966,-5.22573 -2.66967,-2.15845 -6.98657,-2.15845 -4.2033,0 -6.92977,1.81764 -2.72646,1.76085 -2.72646,4.1465 0,0.68162 0.284,1.24963 0.28401,0.51122 0.96563,0.96563 0.68161,0.45441 1.30643,0.79522 0.68161,0.3408 1.81764,0.73841 1.19283,0.34081 1.98805,0.56802 0.79522,0.1704 2.21525,0.56801 1.47684,0.34081 2.21526,0.51121 6.53215,1.76085 8.80421,2.95367 5.11212,2.66967 5.11212,7.55459 0,2.89687 -1.30643,4.99852 -1.24963,2.10165 -3.46488,3.29448 -2.21526,1.13602 -4.77132,1.64724 -2.55606,0.56801 -5.50973,0.56801 -2.32886,0 -4.77132,-0.56801 -2.38565,-0.51122 -4.65771,-1.59044 -2.21525,-1.13603 -3.63529,-3.12408 -1.42003,-2.04485 -1.42003,-4.65771 0,-2.55606 1.81764,-4.2601 1.81765,-1.70404 4.43051,-1.70404 2.61286,0 4.43051,1.70404 1.81764,1.70404 1.81764,4.2601 0,1.93125 -1.13603,3.35128 -1.07922,1.42004 -2.89687,1.98805 2.78327,0.62481 6.02095,0.62481 4.43051,0 7.15697,-1.59043 2.78327,-1.59044 2.78327,-4.37371 0,-1.42003 -0.73842,-2.49926 -0.68162,-1.07923 -2.21525,-1.81764 -1.47684,-0.73842 -2.95367,-1.19283 -1.42004,-0.45441 -3.69209,-1.07923 -0.62482,-0.1704 -0.90882,-0.2272 -0.56802,-0.17041 -2.66967,-0.62482 -2.04485,-0.45441 -3.12407,-0.73842 -1.07923,-0.3408 -2.89687,-1.07922 -1.76085,-0.73842 -2.72647,-1.53364 -0.96562,-0.79522 -1.76084,-2.10165 -0.73842,-1.36323 -0.73842,-3.01047 0,-4.54411 4.2033,-7.49778 4.2033,-3.01048 10.28105,-3.01048 z m -6.24815,24.42459 q -0.79522,-0.85202 -1.98805,-0.85202 -1.19283,0 -2.04485,0.85202 -0.79522,0.79522 -0.79522,1.98805 0,1.19283 0.79522,2.04485 0.85202,0.79522 2.04485,0.79522 1.19283,0 1.98805,-0.79522 0.85202,-0.85202 0.85202,-2.04485 0,-1.19283 -0.85202,-1.98805 z" />
        <path
           id="path4240"
           style="font-style:normal;font-variant:normal;font-weight:normal;font-stretch:normal;font-family:BoonBaan;-inkscape-font-specification:BoonBaan;fill:#ffffff;fill-opacity:0.94999999"
           d="m 946.13064,433.07172 q -0.79522,-0.85202 -1.98805,-0.85202 -1.19283,0 -2.04485,0.85202 -0.79522,0.79522 -0.79522,1.98805 0,1.19283 0.79522,2.04485 0.85202,0.79522 2.04485,0.79522 1.19283,0 1.98805,-0.79522 0.85202,-0.85202 0.85202,-2.04485 0,-1.19283 -0.85202,-1.98805 z m -6.41855,-2.27205 q 1.81764,-1.70404 4.4305,-1.70404 2.61287,0 4.43051,1.70404 1.81764,1.70404 1.81764,4.2601 0,2.04485 -1.19283,3.46488 -1.19282,1.42004 -3.06727,1.93125 2.15845,0.56801 5.39613,0.56801 3.80569,0 6.13455,-2.04484 2.38566,-2.04485 2.38566,-5.33933 l 0,-13.63233 q 0,-3.12408 -2.44246,-5.11213 -2.38566,-1.98804 -6.64576,-1.98804 -4.26011,0 -6.70257,1.98804 -2.38565,1.98805 -2.38565,5.11213 l -5.11213,0 q 0,-4.88492 4.0897,-8.1226 4.0897,-3.23768 10.11065,-3.23768 6.13454,0 10.16744,3.12408 4.0329,3.06727 4.0329,8.2362 l 0,13.63233 q 0,3.91929 -2.21525,6.58896 -2.15846,2.66966 -5.11213,3.69208 -2.95367,1.07923 -6.30495,1.07923 -2.32886,0 -4.60091,-0.56801 -2.27206,-0.51122 -4.37371,-1.59044 -2.10165,-1.13603 -3.40808,-3.12408 -1.24963,-2.04485 -1.24963,-4.65771 0,-2.55606 1.81765,-4.2601 z" />
        <path
           id="path4242"
           style="font-style:normal;font-variant:normal;font-weight:normal;font-stretch:normal;font-family:BoonBaan;-inkscape-font-specification:BoonBaan;fill:#ffffff;fill-opacity:0.94999999"
           d="m 981.4007,417.73535 q -0.79522,-0.85202 -1.98805,-0.85202 -1.19283,0 -2.04485,0.85202 -0.79522,0.79522 -0.79522,1.98805 0,1.19283 0.79522,2.04485 0.85202,0.79522 2.04485,0.79522 1.19283,0 1.98805,-0.79522 0.85202,-0.85202 0.85202,-2.04485 0,-1.19283 -0.85202,-1.98805 z m 14.48435,26.12863 -5.11212,0 0,-23.28856 q 0,-7.38418 -6.53216,-7.38418 -2.49926,0 -4.37371,0.85202 2.49926,0.17041 4.1465,1.76085 1.64724,1.53363 1.64724,3.91929 0,2.55606 -1.81764,4.2601 -1.81765,1.70404 -4.43051,1.70404 -2.61286,0 -4.43051,-1.70404 -1.81764,-1.70404 -1.81764,-4.2601 0,-4.65771 3.12408,-7.55458 3.18087,-2.95367 7.95219,-2.95367 5.05532,0 8.3498,2.84007 3.29448,2.78326 3.29448,8.5202 l 0,23.28856 z" />
        <path
           id="path4244"
           style="font-style:normal;font-variant:normal;font-weight:normal;font-stretch:normal;font-family:BoonBaan;-inkscape-font-specification:BoonBaan;fill:#ffffff;fill-opacity:0.94999999"
           d="m 1014.8603,437.04782 q -0.7952,-0.85202 -1.9881,-0.85202 -1.1928,0 -2.0448,0.85202 -0.7952,0.79522 -0.7952,1.98805 0,1.19283 0.7952,2.04485 0.852,0.79522 2.0448,0.79522 1.1929,0 1.9881,-0.79522 0.852,-0.85202 0.852,-2.04485 0,-1.19283 -0.852,-1.98805 z m -1.4201,-3.69209 q 2.3289,0 3.9761,1.59044 1.7041,1.59044 1.7041,4.0897 0,2.55606 -1.8177,4.2601 -1.8176,1.70404 -4.4305,1.70404 -3.0104,0 -5.2257,-2.21525 -2.1585,-2.21526 -2.1585,-5.73694 0,-4.0329 2.7833,-6.53216 2.7833,-2.55606 6.873,-2.55606 9.9402,0 13.2347,12.4963 1.5336,-0.1136 1.5336,-2.27205 l 0,-18.17644 q 0,-3.29448 -2.6696,-5.16893 -2.6129,-1.93124 -6.9866,-1.93124 -4.3737,0 -7.0434,1.93124 -2.6128,1.87445 -2.6128,5.16893 l -5.1122,0 q 0,-4.88492 4.2034,-8.1226 4.2033,-3.23768 10.565,-3.23768 6.3618,0 10.5651,3.23768 4.2033,3.23768 4.2033,8.1226 l 0,18.17644 q 0,3.01047 -0.9089,4.3737 -0.852,1.30643 -3.6352,1.30643 l -5.1122,0 q -2.3856,-12.4963 -10.2242,-12.4963 -2.0449,0 -3.5785,0.96563 -1.4768,0.90882 -2.0449,2.44245 1.5337,-1.42003 3.9193,-1.42003 z" />
        <path
           id="path4246"
           style="font-style:normal;font-variant:normal;font-weight:normal;font-stretch:normal;font-family:BoonBaan;-inkscape-font-specification:BoonBaan;fill:#ffffff;fill-opacity:0.94999999"
           d="m 1052.9208,438.07024 q 1.0792,0.96563 1.0792,2.38566 0,1.42004 -1.0792,2.44246 -1.0225,0.96562 -2.6129,0.96562 -1.5904,0 -2.6697,-0.96562 -1.0224,-1.02242 -1.0224,-2.44246 0,-1.42003 1.0224,-2.38566 1.0793,-1.02242 2.6697,-1.02242 1.5904,0 2.6129,1.02242 z m -6.021,-41.91941 3.4081,0 3.4081,0 -0.568,27.26466 q 0,1.13603 -0.4544,2.84007 -0.3977,1.70404 -0.7953,2.84007 l -0.4544,1.13602 -1.136,0 -1.136,0 q -1.7041,-4.2033 -1.7041,-6.81616 l -0.568,-27.26466 z" />
      </g>
    </g>
  </g>
</svg>
