<svg xmlns="http://www.w3.org/2000/svg" width="350" height="350" viewBox="0 0 350 350"><g font-family="BoonBaan" letter-spacing="0" word-spacing="0" fill="#fff" fill-opacity=".9"><path d="M43.671 241.992q1.293 1.207 3.103 1.207 1.81 0 3.017-1.207 1.293-1.293 1.293-3.103 0-1.81-1.293-3.017-1.206-1.293-3.017-1.293-1.81 0-3.103 1.293-1.206 1.207-1.206 3.017 0 1.81 1.206 3.103zm3.103 6.378q-4.568 0-7.671-2.5Q36 243.286 36 238.89t3.103-7.154q3.19-2.759 7.671-2.759 5.172 0 8.792 3.276 3.707 3.19 3.707 7.93 0 4.223-2.586 9.137-2.586 4.913-2.586 8.964v6.895q0 8.62 11.205 8.62 11.206 0 11.206-8.62v-35.34h12.93v35.34q0 18.101-24.136 18.101-12.412 0-18.273-4.999-5.861-5-5.861-13.102v-6.895q0-2.241 1.034-4.224 1.034-1.982 1.983-3.017 1.034-1.034 3.016-2.672h-.43zM63.596 310v-5.172q0-1.81 1.465-3.534-2.844-.345-4.74-2.413-1.897-1.983-1.897-4.827 0-3.19 2.241-5.258 2.241-2.069 5.517-2.069 3.62 0 6.12 2.069t2.5 5.258q0 2.155-.863 5.43-.862 3.276-.862 5.344V310h-9.481zm4.74-18.101q-.947-.862-2.154-.862-1.207 0-2.069.862-.948.948-.948 2.155 0 1.207.948 2.069.862.948 2.069.948 1.207 0 2.155-.948.862-.862.862-2.07 0-1.206-.862-2.154zm37.409-49.907q1.293 1.207 3.103 1.207 1.81 0 3.017-1.207 1.293-1.293 1.293-3.103 0-1.81-1.293-3.017-1.206-1.293-3.017-1.293-1.81 0-3.103 1.293-1.206 1.207-1.206 3.017 0 1.81 1.206 3.103zm13.878-3.103v29.048q4.396 4.999 9.481 4.999 6.896 0 6.896-8.62v-34.478h12.93v34.479q0 9.05-3.88 13.618-3.792 4.483-10.774 4.483-9.05 0-15.256-7.069-2.242 7.069-11.033 7.069-5.603 0-9.913-2.155l2.155-6.034q1.81.776 3.62.776 2.845 0 2.845-3.793v-20.687q0-1.379.43-2.24-3.964-.432-6.55-2.931-2.5-2.5-2.5-6.465 0-4.396 3.103-7.154 3.19-2.759 7.671-2.759 4.483 0 7.586 2.759 3.189 2.758 3.189 7.154zm44.654 3.103q1.293 1.207 3.103 1.207 1.81 0 3.017-1.207 1.293-1.293 1.293-3.103 0-1.81-1.293-3.017-1.206-1.293-3.017-1.293-1.81 0-3.103 1.293-1.206 1.207-1.206 3.017 0 1.81 1.206 3.103zm3.103 6.378q-4.568 0-7.67-2.5-3.104-2.585-3.104-6.981t3.103-7.154q3.19-2.759 7.671-2.759 5.172 0 8.792 3.276 3.707 3.19 3.707 7.93 0 4.223-2.586 9.137-2.586 4.913-2.586 8.964v6.895q0 8.62 11.205 8.62 11.206 0 11.206-8.62v-35.34h12.93v35.34q0 18.101-24.136 18.101-12.412 0-18.273-4.999-5.861-5-5.861-13.102v-6.895q0-2.241 1.034-4.224 1.034-1.982 1.983-3.017 1.034-1.034 3.016-2.672h-.43zm13.547-43.183q-.776-.776-1.897-.776-1.12 0-1.81.776-.776.69-.776 1.81t.776 1.896q.69.69 1.81.69t1.897-.69q.69-.776.69-1.896 0-1.12-.69-1.81zm-9.654 14.308v-4.74h3.448q2.413 0 4.137-1.725-2.845-.086-4.74-1.724-1.983-1.724-1.983-4.31 0-2.671 2.068-4.568 1.983-1.896 4.827-1.896 2.845 0 4.913 1.896 1.983 1.897 1.983 4.569 0 3.878-2.672 6.895h6.12q3.534 0 5.43-2.5 1.896-2.585 1.896-7.412h9.05q0 7.24-3.792 11.378-3.879 4.137-9.998 4.137h-20.687zm60.337 24.997q-1.207-1.293-3.017-1.293-1.81 0-3.103 1.293-1.207 1.206-1.207 3.016t1.207 3.103q1.292 1.207 3.103 1.207 1.81 0 3.016-1.207 1.293-1.292 1.293-3.103 0-1.81-1.293-3.016zm11.205 37.064v-35.34q0-9.482-9.05-9.482-3.018 0-5.345 1.724 4.569.172 7.758 2.586 3.189 2.327 3.189 6.464 0 4.396-3.19 7.155-3.102 2.758-7.584 2.758-4.483 0-7.672-2.758-3.103-2.759-3.103-7.155 0-7.93 5.258-13.187 5.344-5.345 13.705-5.345 7.844 0 13.36 4.914 5.603 4.913 5.603 13.187v34.479h-12.93zm30.001-39.564q1.293 1.207 3.103 1.207 1.81 0 3.017-1.207 1.293-1.293 1.293-3.103 0-1.81-1.293-3.017-1.207-1.293-3.017-1.293-1.81 0-3.103 1.293-1.207 1.207-1.207 3.017 0 1.81 1.207 3.103zm13.878-3.103v29.048q4.396 4.999 9.481 4.999 6.896 0 6.896-8.62v-34.478H316v34.479q0 9.05-3.879 13.618-3.792 4.483-10.774 4.483-9.05 0-15.257-7.069-2.24 7.069-11.033 7.069-5.602 0-9.912-2.155l2.155-6.034q1.81.776 3.62.776 2.844 0 2.844-3.793v-20.687q0-1.379.431-2.24-3.965-.432-6.55-2.931-2.5-2.5-2.5-6.465 0-4.396 3.103-7.154 3.189-2.759 7.671-2.759t7.585 2.759q3.19 2.758 3.19 7.154z" style="line-height:125%;-inkscape-font-specification:'BoonBaan, Bold';text-align:start" font-weight="700" font-size="114.517"/><path d="M155.554 88.576q-.87 0-1.575.621-.705.58-.829 1.451 0 .083-.041.166v.124q0 .746.497 1.285.539.497 1.326.497.87 0 1.534-.58.704-.622.829-1.492v-.166q.041-.124.041-.166 0-.746-.497-1.243-.498-.497-1.285-.497zm.746-2.073q1.534 0 2.528.954 1.037.911 1.037 2.445 0 .249-.083.746-.29 1.865-1.824 3.109Q156.466 95 154.559 95q-1.948 0-3.274-1.285Q150 92.43 150 90.275q0-.332.083-1.078.456-2.942 2.777-4.766 2.32-1.865 5.305-1.865 7.253 0 8.248 9.118 1.12-.083 1.368-1.658l1.7-10.776q.124-.622.414-1.078-3.896 1.7-7.958 1.7-4.145 0-7.13-1.202-2.983-1.202-2.983-3.026v-.124q.041-.125.041-.208.415-2.652 3.98-4.725 3.564-2.113 7.874-2.113 5.098 0 7.585 3.232-.124-.663-.041-1.16l.621-3.73h3.316l-3.689 23.21q-.331 2.197-1.119 3.192-.787.953-2.86.953h-3.73q-.249-9.118-6.01-9.118-1.492 0-2.735.704-1.202.705-1.783 1.782 1.285-1.036 3.026-1.036zm14.134-11.19q-.456-1.7-2.404-2.819-1.948-1.12-4.767-1.12-3.025 0-5.347 1.369-2.28 1.326-2.28 2.445 0 .788 1.907 1.492 1.948.705 4.767.705 4.56 0 8.124-2.073zm14.787-3.523q-.787 0-1.45.538-.622.539-.746 1.326 0 .042-.042.166v.125q0 .704.456 1.16.456.415 1.16.415.788 0 1.41-.54.622-.538.746-1.326v-.165q.041-.125.041-.166 0-.663-.456-1.078-.455-.456-1.119-.456zm.29-2.073q1.575 0 2.57.912.995.912.995 2.362 0 .456-.041.663-.166 1.037-.995 1.866h4.02q1.741 0 2.653-.912.953-.912 1.326-3.233h3.73q-.621 3.854-2.694 5.471-2.072 1.575-5.47 1.575h-5.389q-2.818 0-4.186-1.12-1.368-1.118-1.368-2.859 0-.207.083-.788.29-1.699 1.658-2.818 1.368-1.119 3.108-1.119zm-2.528 16.165q-.787 0-1.409.538-.622.54-.746 1.327 0 .083-.042.207v.124q0 .663.456 1.12.456.414 1.12.414.787 0 1.409-.539.663-.539.787-1.326v-.125q.042-.124.042-.165 0-.705-.456-1.12-.456-.455-1.16-.455zm.332-2.073q1.575 0 2.57.912.994.912.994 2.362 0 .456-.041.664-.166.994-1.036 1.865h4.02q1.74 0 2.653-.912.953-.912 1.326-3.233h3.73q-.621 3.855-2.694 5.471-2.072 1.575-5.47 1.575h-5.39q-2.818 0-4.185-1.078-1.327-1.119-1.327-2.86 0-.248.083-.828.29-1.7 1.658-2.819 1.368-1.119 3.109-1.119zm26.029-12.641q-.87 0-1.575.621-.705.58-.83 1.451 0 .083-.04.207v.125q0 .746.497 1.243.497.497 1.285.497.87 0 1.575-.58.704-.622.829-1.492v-.166q.041-.124.041-.166 0-.746-.497-1.243-.498-.497-1.285-.497zm-3.73 10.569q.082-.456.207-.87.124-.415.373-.788.29-.373.456-.622.166-.249.58-.622.414-.373.58-.497.166-.166.622-.539.497-.373.622-.456-.249.042-.705.042-1.7 0-2.818-.912-1.12-.953-1.12-2.528 0-.456.042-.705.29-1.865 1.824-3.109 1.533-1.243 3.44-1.243 1.948 0 3.108 1.078 1.161 1.077 1.161 2.735 0 .498-.041.746-.332 2.114-2.363 4.435-1.99 2.28-2.238 3.855l-.87 5.388q-.042.207-.042.58 0 1.865 1.7 3.026 1.699 1.16 4.641 1.16 3.192 0 5.306-1.326 2.155-1.368 2.487-3.44l2.818-17.822h3.73l-2.818 17.822q-.456 2.694-2.321 4.518-1.824 1.823-4.31 2.57-2.446.787-5.389.787-4.186 0-6.922-1.616-2.735-1.617-2.735-4.933 0-.663.124-1.326l.87-5.388zm33.04-7.254q-.87 0-1.575.622-.705.58-.83 1.45 0 .084-.04.208v.124q0 .746.497 1.244.497.497 1.285.497.87 0 1.575-.58.704-.622.829-1.492v-.166q.041-.124.041-.166 0-.746-.497-1.243-.498-.498-1.285-.498zm8.911 19.688h-3.73l2.694-16.993q.124-.83.124-1.534 0-3.855-4.02-3.855-1.865 0-3.316.622 1.616.124 2.611 1.078.995.912.995 2.404 0 .414-.042.663-.29 1.865-1.823 3.108-1.492 1.244-3.399 1.244-1.7 0-2.818-.995-1.12-1.036-1.12-2.653 0-.455.042-.704.539-3.399 3.191-5.513 2.653-2.155 6.135-2.155 3.274 0 5.263 1.616 2.031 1.617 2.031 4.891 0 .87-.124 1.783l-2.694 16.993zm17.452-18.859q.87 0 1.575-.58.705-.622.829-1.492v-.166q.041-.124.041-.166 0-.746-.497-1.243-.497-.497-1.285-.497-.87 0-1.575.621-.704.58-.829 1.451 0 .083-.041.207v.125q0 .746.497 1.243.497.497 1.285.497zm-.373 2.28q-1.658 0-2.694-1.078-.995-1.077-.995-2.735-.331.622-.539 1.74-.041.208-.041.58 0 2.115 2.114 3.565 2.155 1.451 5.14 1.451l-.415 2.487q-3.275 0-5.347.663-2.072.622-2.363 2.445-.041.25-.041.705 0 1.99 1.7 3.233 1.699 1.243 4.766 1.243 3.357 0 5.554-1.45 2.196-1.45 2.528-3.73l2.736-17.409h3.73L277.74 86.71q-.621 3.772-4.144 6.052Q270.074 95 265.43 95q-4.186 0-6.963-2.03-2.777-2.073-2.777-5.223 0-.29.083-1.037.539-3.481 5.264-4.849-3.606-2.197-3.606-5.512 0-.25.083-.83.456-2.984 2.86-4.807 2.404-1.824 5.678-1.824 1.7 0 2.777 1.036 1.12.995 1.12 2.611 0 .456-.042.705-.29 1.865-1.824 3.109-1.533 1.243-3.44 1.243zm26.973 10.569q-.87 0-1.575.622-.704.58-.829 1.45 0 .083-.041.208v.124q0 .746.497 1.244.498.497 1.285.497.87 0 1.575-.58.705-.622.829-1.492v-.166q.042-.125.042-.166 0-.746-.498-1.243-.497-.498-1.285-.498zm.373-2.28q1.7 0 2.777 1.037 1.12.994 1.12 2.61 0 .457-.042.706-.29 1.865-1.824 3.108-1.533 1.244-3.44 1.244-2.611 0-4.145-1.575-1.492-1.576-1.492-4.104 0-.704.125-1.368l1.74-10.776q.54-3.564 4.02-5.927 3.482-2.362 8.042-2.362 4.227 0 6.88 1.906 2.694 1.865 2.694 5.14 0 .829-.083 1.243l-2.777 17.408h-3.73l2.777-17.408q.041-.249.041-.746 0-1.99-1.658-3.191-1.616-1.244-4.642-1.244-3.316 0-5.388 1.45-2.072 1.451-2.445 3.731l-1.658 10.238q1.367-1.12 3.108-1.12zm4.633-29.013h5.803q2.114 0 3.191.995 1.078.995 1.078 2.818 0 .746-.083 1.16-.124.664-.746 1.452h6.715l-.373 2.28h-12.85l.374-2.28h3.481q.58-.705.705-1.451.042-.207.042-.539 0-1.948-2.777-1.948h-4.145q-1.7 0-2.404.663-.705.622-.87 1.824-.042.124-.042.414 0 .87.456 1.824.456.953 1.036 1.492h-3.316q-.663-.29-1.077-1.285-.415-.994-.415-1.948 0-.331.042-.497.373-2.321 2.03-3.647 1.658-1.327 4.145-1.327z" style="line-height:125%;-inkscape-font-specification:'BoonBaan, Oblique';text-align:start" font-style="oblique" font-weight="400" font-size="55.066"/></g></svg>